<svg width="682" height="280" viewBox="0 0 682 280" fill="none" xmlns="http://www.w3.org/2000/svg">
<rect width="682" height="280" rx="82" fill="#"/>
<path d="M110.4 101C119.867 101 127.2 103.8 132.4 109.4C137.733 115 140.4 123.267 140.4 134.2V213H122.6V136.6C122.6 123.133 116.6 116.4 104.6 116.4C98.7333 116.4 93.1333 118.267 87.8 122C82.6 125.733 76.2667 132.333 68.8 141.8V213H51V103H64.4L67.8 128.8C79.2667 110.267 93.4667 101 110.4 101Z" fill="#E8E4F1"/>
<path d="M203.13 215C188.33 215 176.93 210.333 168.93 201C160.93 191.533 156.93 178.2 156.93 161C156.93 141.933 161.33 127.2 170.13 116.8C178.93 106.267 191.263 101 207.13 101C221.93 101 233.33 105.667 241.33 115C249.463 124.333 253.53 137.6 253.53 154.8C253.53 174 249.13 188.867 240.33 199.4C231.53 209.8 219.13 215 203.13 215ZM182.13 189.4C186.663 195.4 194.33 198.4 205.13 198.4C215.93 198.4 223.53 195.333 227.93 189.2C232.463 182.933 234.73 172.4 234.73 157.6C234.73 142.933 232.463 132.6 227.93 126.6C223.53 120.6 215.93 117.6 205.13 117.6C194.463 117.6 186.863 120.667 182.33 126.8C177.796 132.933 175.53 143.4 175.53 158.2C175.53 172.867 177.73 183.267 182.13 189.4Z" fill="#E8E4F1"/>
<path d="M313.059 215C298.259 215 286.859 210.333 278.859 201C270.859 191.533 266.859 178.2 266.859 161C266.859 141.933 271.259 127.2 280.059 116.8C288.859 106.267 301.193 101 317.059 101C331.859 101 343.259 105.667 351.259 115C359.393 124.333 363.459 137.6 363.459 154.8C363.459 174 359.059 188.867 350.259 199.4C341.459 209.8 329.059 215 313.059 215ZM292.059 189.4C296.593 195.4 304.259 198.4 315.059 198.4C325.859 198.4 333.459 195.333 337.859 189.2C342.393 182.933 344.659 172.4 344.659 157.6C344.659 142.933 342.393 132.6 337.859 126.6C333.459 120.6 325.859 117.6 315.059 117.6C304.393 117.6 296.793 120.667 292.259 126.8C287.726 132.933 285.459 143.4 285.459 158.2C285.459 172.867 287.659 183.267 292.059 189.4Z" fill="#E8E4F1"/>
<path d="M451.989 65H469.789V213H456.389L453.389 194.2C446.056 208.067 434.656 215 419.189 215C405.856 215 395.522 210.133 388.189 200.4C380.989 190.667 377.389 176.867 377.389 159C377.389 140.6 380.989 126.333 388.189 116.2C395.522 106.067 405.856 101 419.189 101C433.589 101 444.522 106.8 451.989 118.4V65ZM423.989 199C434.122 199 441.322 196 445.589 190C449.856 183.867 451.989 173.533 451.989 159C451.989 143.933 449.856 133.2 445.589 126.8C441.322 120.267 434.122 117 423.989 117C413.856 117 406.656 120.067 402.389 126.2C398.256 132.2 396.189 142.467 396.189 157C396.189 172.067 398.322 182.867 402.589 189.4C406.856 195.8 413.989 199 423.989 199Z" fill="#E8E4F1"/>
<path d="M562.719 198.4C571.519 198.4 579.985 195.867 588.119 190.8V207.6C578.919 212.533 569.385 215 559.519 215C546.985 215 537.385 211.2 530.719 203.6C524.052 195.867 520.719 184.4 520.719 169.2V81H481.719V65H538.719V167.6C538.719 188.133 546.719 198.4 562.719 198.4Z" fill="#E8E4F1"/>
<path d="M631.048 183.4H658.648V213H631.048V183.4Z" fill="#E8E4F1"/>
</svg>
